<svg width="48" height="48" viewBox="0 0 48 48" fill="none" xmlns="http://www.w3.org/2000/svg">
<g id="&#235;&#161;&#156;&#235;&#147;&#156;&#235;&#183;&#176; &#236;&#149;&#132;&#236;&#157;&#180;&#236;&#189;&#152;">
<circle id="Ellipse 62" cx="24" cy="24" r="23.5" fill="white" stroke="black"/>
<g id="Group 432">
<path id="Ellipse 59" d="M32.5 33C32.5 34.1386 31.7362 35.2523 30.3245 36.1079C28.9219 36.958 26.9522 37.5 24.75 37.5C22.5478 37.5 20.5781 36.958 19.1755 36.1079C17.7638 35.2523 17 34.1386 17 33C17 31.8614 17.7638 30.7477 19.1755 29.8921C20.5781 29.042 22.5478 28.5 24.75 28.5C26.9522 28.5 28.9219 29.042 30.3245 29.8921C31.7362 30.7477 32.5 31.8614 32.5 33Z" fill="white" stroke="black"/>
<circle id="Ellipse 57" cx="24.5" cy="21.5" r="11" fill="white" stroke="black"/>
<circle id="Ellipse 58" cx="24.5" cy="21.5" r="4.5" fill="white" stroke="black"/>
</g>
</g>
</svg>
