<svg width="41" height="41" viewBox="0 0 41 41" fill="none" xmlns="http://www.w3.org/2000/svg">
<g id="Group 43">
<circle id="Ellipse 2" cx="20.7663" cy="20.9349" r="19.4759" fill="white" stroke="black"/>
<path id="Vector" d="M10.2825 20.7814V25.8889H24.888V20.7814H10.2825ZM23.5294 24.5269H11.6411V22.1434H23.5294V24.5269ZM25.907 20.7814H27.2657V25.8889H25.907V20.7814ZM28.2847 20.7814H29.6433V25.8889H28.2847V20.7814ZM25.9677 17.9425C25.8048 17.6961 25.7263 17.4034 25.7441 17.1084C25.7618 16.8134 25.8749 16.5322 26.0662 16.3073C26.4615 15.8463 26.691 15.2656 26.7178 14.6583C26.7446 14.0509 26.5671 13.4522 26.2139 12.958L25.9655 12.6094H24.4125L24.3352 12.6647L25.1083 13.7496C25.2845 13.9962 25.3731 14.295 25.3597 14.598C25.3463 14.9011 25.2318 15.1908 25.0346 15.4208C24.6513 15.8716 24.4247 16.4351 24.3891 17.0263C24.3535 17.6174 24.5108 18.2042 24.8372 18.6979L25.0906 19.0789H26.7235L25.9677 17.9425ZM29.0246 17.9425C28.8618 17.6961 28.7833 17.4034 28.8011 17.1084C28.8188 16.8134 28.9319 16.5322 29.1231 16.3073C29.5185 15.8463 29.748 15.2656 29.7748 14.6583C29.8015 14.0509 29.6241 13.4522 29.2708 12.958L29.0225 12.6094H27.4695L27.3922 12.6647L28.1652 13.7496C28.3415 13.9962 28.4301 14.295 28.4167 14.598C28.4033 14.9011 28.2888 15.1908 28.0915 15.4208C27.7083 15.8716 27.4817 16.4351 27.4461 17.0263C27.4105 17.6174 27.5678 18.2042 27.8941 18.6979L28.1475 19.0789H29.7805L29.0246 17.9425Z" fill="#FC0000"/>
</g>
</svg>
